<svg xmlns="http://www.w3.org/2000/svg" xmlns:xlink="http://www.w3.org/1999/xlink" viewBox="0,0,256,256" width="68px" height="68px" fill-rule="nonzero"><g fill="none" fill-rule="nonzero" stroke="none" stroke-width="1" stroke-linecap="butt" stroke-linejoin="miter" stroke-miterlimit="10" stroke-dasharray="" stroke-dashoffset="0" font-family="none" font-weight="none" font-size="none" text-anchor="none" style="mix-blend-mode: normal"><g transform="scale(3.76471,3.76471)"><path d="M64.43933,37.0783c2.07551,1.1983 2.08023,3.14159 0.01806,4.33999l-28.41094,16.51064c-2.0685,1.20208 -5.41707,1.20202 -7.49258,0.00372l-19.38597,-11.19249l35.88547,-20.85435z" fill="#ffffff"></path><path d="M64.45258,41.41361l-28.40858,16.51506c-2.07046,1.20038 -5.41181,1.20038 -7.49253,0l-19.38581,-11.19342l2.33079,-1.3604c4.77148,4.22132 12.21369,6.9221 20.56634,6.9221c14.41457,0 26.09782,-8.04244 26.09782,-17.95544c0,-0.30014 -0.00977,-0.60022 -0.0298,-0.9003l6.31199,3.64112c2.07046,1.19037 2.08022,3.14098 0.00977,4.33128z" fill="#e9edf4"></path><path d="M49.60268,42.55313l-12.63822,7.34816c-3.13524,1.8229 -7.00578,1.83069 -10.14832,0.02041l-10.07899,-5.80605l25.06528,-14.57155l7.78796,4.49806c3.27254,1.89011 3.27935,6.61142 0.01229,8.51097z" fill="#160562"></path><path d="M49.59795,42.55397l-12.63375,7.35228c-3.13084,1.82056 -7.00214,1.83052 -10.15301,0.01997l-10.0729,-5.81178l2.47048,-1.44044c2.92081,2.47079 7.40216,4.04127 12.41395,4.04127c8.81275,0 15.97461,-4.86153 15.97461,-10.85335c0,-1.21033 -0.29013,-2.37072 -0.83033,-3.45107l2.82117,1.6305c3.27102,1.89059 3.28079,6.61207 0.00977,8.51261z" fill="#003cca"></path><path d="M31.87306,51.66943c-1.81738,0 -3.63379,-0.4668 -5.25586,-1.40137l-10.0791,-5.80566c-0.12402,-0.07129 -0.2002,-0.20312 -0.20117,-0.3457c0,-0.14258 0.07617,-0.27539 0.19922,-0.34668l25.06543,-14.57129c0.125,-0.07227 0.27637,-0.07129 0.40137,-0.00098l7.78809,4.49804c1.66211,0.95996 2.65527,2.67871 2.6582,4.59766c0.00293,1.91895 -0.98633,3.64063 -2.64551,4.60547l-12.6377,7.34766c-1.63184,0.94824 -3.46191,1.42285 -5.29297,1.42285zM17.53615,44.11377l9.47949,5.46094c3.00977,1.73242 6.74414,1.72656 9.74805,-0.01953l12.6377,-7.34766v0c1.41016,-0.81934 2.25,-2.28223 2.24805,-3.91309c-0.00293,-1.62988 -0.84668,-3.09082 -2.25879,-3.90527l-7.58691,-4.38281z" fill="#000000"></path><path d="M32.29882,59.23877c-1.41794,0 -2.83787,-0.31934 -3.94529,-0.95898l-19.38574,-11.19336c-0.12305,-0.07129 -0.19922,-0.20312 -0.2002,-0.3457c0,-0.14355 0.07617,-0.27539 0.19922,-0.34668l35.88574,-20.85351c0.125,-0.07227 0.27637,-0.07129 0.40137,-0.00098l19.38574,11.19238v0c1.13379,0.65527 1.75879,1.5498 1.75977,2.52051c0.00195,0.9668 -0.61719,1.8584 -1.74121,2.51172l-28.41016,16.51074c-1.10547,0.64258 -2.52734,0.96387 -3.94924,0.96387zM9.96584,46.73877l18.78809,10.84766c1.96094,1.13281 5.14258,1.12988 7.0918,-0.00293l28.41016,-16.51074c0.86816,-0.50391 1.34473,-1.15039 1.34375,-1.81934c-0.00098,-0.67285 -0.4834,-1.32227 -1.36035,-1.82812l-19.18457,-11.07715z" fill="#000000"></path><path d="M8.99757,30.60526c3.85095,2.22335 6.96375,7.61502 6.9512,12.04026c-0.01252,4.4179 -3.14567,6.20348 -6.99662,3.98013c-3.8513,-2.22355 -6.96409,-7.61522 -6.95157,-12.03312c0.01255,-4.42524 3.14569,-6.21082 6.99699,-3.98727z" fill="#160562"></path><path d="M12.08205,47.98584c-1.03027,0 -2.16309,-0.33984 -3.33008,-1.01367c-3.95605,-2.28418 -7.16406,-7.83789 -7.15137,-12.38086c0.00684,-2.28125 0.80469,-3.99512 2.24707,-4.82519c1.45313,-0.83789 3.35254,-0.66016 5.34961,0.49219v0c3.95508,2.28418 7.16406,7.8418 7.15234,12.38867c-0.00684,2.27734 -0.80469,3.98828 -2.24707,4.81836c-0.60449,0.34766 -1.28613,0.52051 -2.02051,0.52051zM5.87013,30.04638c-0.5957,0 -1.14355,0.13672 -1.62305,0.41309c-1.18555,0.68164 -1.84082,2.14941 -1.8457,4.13379c-0.0127,4.28711 3.01563,9.5293 6.75098,11.68555c1.74219,1.00684 3.3584,1.17871 4.55176,0.49316c1.18457,-0.68164 1.83984,-2.14746 1.8447,-4.12695c0.01174,-4.29199 -3.01755,-9.53711 -6.75193,-11.69336v0c-1.04102,-0.60156 -2.03809,-0.90527 -2.92676,-0.90527z" fill="#000000"></path><path d="M8.98446,35.21854c-1.63331,-0.94297 -2.96184,-0.18573 -2.96722,1.69089c-0.00293,1.0373 0.40882,2.19464 1.04671,3.18701l4.14384,-2.40808c-0.5402,-1.0326 -1.33,-1.95415 -2.22334,-2.46981z" fill="#ffffff"></path><path d="M7.06349,40.49658c-0.13184,0 -0.26074,-0.06543 -0.33691,-0.18457c-0.70801,-1.10156 -1.1123,-2.3418 -1.10937,-3.40332c0.00293,-1.05273 0.38281,-1.85059 1.06836,-2.24512c0.68945,-0.39844 1.57617,-0.32324 2.49902,0.20801v0c0.9248,0.53418 1.76953,1.46875 2.37793,2.63086c0.09961,0.18945 0.03125,0.42383 -0.15332,0.53125l-4.14453,2.4082c-0.06348,0.03711 -0.13281,0.05469 -0.20117,0.05469zM7.66017,35.21142c-0.21387,0 -0.40723,0.04785 -0.5752,0.14453c-0.42871,0.24707 -0.66504,0.79883 -0.66699,1.55469c-0.00293,0.81055 0.28027,1.75684 0.78418,2.64258l3.46484,-2.01367c-0.51367,-0.86426 -1.18652,-1.57324 -1.88281,-1.97461v0c-0.40527,-0.23437 -0.78906,-0.35352 -1.12402,-0.35352z" fill="#000000"></path><g><path d="M7.06395,40.09643c0.51432,0.79999 1.17223,1.49509 1.90097,1.91593c1.63331,0.94285 2.96184,0.18566 2.96722,-1.68784c0.00244,-0.8503 -0.27694,-1.78069 -0.72434,-2.63618z" fill="#ffffff"></path><path d="M10.29299,42.81982c-0.47754,0 -0.99707,-0.1543 -1.52832,-0.46094c-0.75098,-0.43457 -1.45508,-1.1416 -2.03711,-2.0459c-0.05957,-0.0918 -0.07812,-0.2041 -0.05273,-0.31055c0.02539,-0.10645 0.09277,-0.19727 0.1875,-0.25195l4.14453,-2.4082c0.09473,-0.05469 0.20605,-0.06836 0.3125,-0.03809c0.10447,0.03027 0.19238,0.10156 0.24316,0.19824c0.50586,0.96875 0.77246,1.94434 0.76953,2.82324c-0.00293,1.05176 -0.38184,1.84766 -1.06738,2.24219c-0.29297,0.16797 -0.62109,0.25195 -0.97168,0.25195zM7.63674,40.22509c0.45898,0.62695 0.99121,1.13086 1.52832,1.44043c0.66602,0.38477 1.27051,0.45703 1.7002,0.20898c0.42773,-0.24609 0.66406,-0.79687 0.66602,-1.55078c0.00293,-0.62891 -0.17187,-1.35352 -0.49512,-2.07324z" fill="#000000"></path></g><g fill="#ffffff"><path d="M25.73961,34.8021c-2.80154,1.61747 -2.44908,4.46063 0.80822,6.35357c3.25062,1.88905 8.16457,2.1064 10.96612,0.48893c2.80847,-1.62147 2.4493,-4.46852 -0.80132,-6.35758c-3.25729,-1.89293 -8.16455,-2.10639 -10.97301,-0.48492z"></path></g><g fill="#e9edf4"><path d="M37.51417,41.64372c-2.80066,1.62049 -7.71232,1.40039 -10.96331,-0.49014c-2.56035,-1.4805 -3.33061,-3.56109 -2.17059,-5.16161c1.02033,2.76085 4.00122,4.76147 7.52232,4.76147c2.99115,0 5.59204,-1.44044 6.94206,-3.56109c1.05061,1.5805 0.64033,3.32102 -1.33049,4.45137z"></path></g><g fill="#000000"><path d="M32.79787,43.1206c-2.24219,0 -4.6084,-0.54883 -6.45117,-1.61914c-1.8418,-1.07031 -2.89746,-2.5127 -2.89551,-3.95801c0.00098,-1.21484 0.74316,-2.31055 2.08789,-3.08789c2.91309,-1.68066 8.0166,-1.46582 11.375,0.48535c1.83984,1.06934 2.89453,2.5127 2.8916,3.95801c-0.00098,1.21582 -0.74414,2.31445 -2.0918,3.09277c-1.31348,0.75781 -3.07324,1.12891 -4.91602,1.12891zM30.46681,34.10986c-1.70117,0 -3.32031,0.3418 -4.52734,1.03906v0c-1.08789,0.62793 -1.6875,1.47852 -1.68848,2.39551c-0.00195,1.15234 0.90918,2.34277 2.49805,3.26563c3.13477,1.82129 7.87597,2.04102 10.56445,0.48828c1.08984,-0.62891 1.69141,-1.48145 1.69238,-2.40039c0.00195,-1.15234 -0.90723,-2.34277 -2.49414,-3.26562c-1.73047,-1.00488 -3.9502,-1.52246 -6.04492,-1.52246zM25.73928,34.80224h0.00977z"></path></g><g fill="#ffffff"><path d="M51.19694,22.15564c0,2.20062 -0.78051,3.74113 -2.0309,4.47134l-35.25052,20.48624c1.25038,-0.7302 2.03041,-2.27065 2.03041,-4.47134c0.02003,-4.42133 -3.10105,-9.813 -6.95232,-12.03371c-1.93028,-1.12034 -3.69107,-1.23036 -4.96148,-0.49014l35.25101,-20.48624c1.27041,-0.7302 3.03071,-0.6302 4.96148,0.49014c3.85127,2.22065 6.97186,7.61231 6.95232,12.03371z"></path></g><g fill="#e9edf4"><path d="M51.19853,22.15772c0,2.20069 -0.78003,3.7412 -2.03041,4.4714l-35.25101,20.48624c1.25038,-0.7302 2.03089,-2.27065 2.03089,-4.47134c0.00977,-2.74083 -1.18054,-5.86178 -3.01117,-8.36254c2.52079,0.62019 5.24184,0.96025 8.08255,0.96025c13.06405,0 23.64736,-7.15215 23.64736,-15.97485c0,-3.71116 -1.86092,-7.12217 -4.99176,-9.82301c1.23036,-0.51017 2.83094,-0.33012 4.57171,0.6802c3.85078,2.22065 6.97186,7.61231 6.95183,12.03365z"></path></g><g fill="#000000"><path d="M13.91506,47.51318c-0.1377,0 -0.27148,-0.07129 -0.3457,-0.19922c-0.11133,-0.19043 -0.04687,-0.43555 0.14453,-0.54687c1.18164,-0.68945 1.83203,-2.1543 1.83203,-4.125c0.01953,-4.28711 -3.00977,-9.53027 -6.75293,-11.6875c-1.74219,-1.01172 -3.35937,-1.18555 -4.55469,-0.49414l-0.00391,0.00195c0,0 0,0.00098 -0.00098,0.00098v0c-0.19043,0.11133 -0.43555,0.04688 -0.54688,-0.14453c-0.11133,-0.19043 -0.04687,-0.43555 0.14453,-0.54687c0.00195,-0.00098 0.00488,-0.00293 0.00781,-0.00391l35.24316,-20.48242c1.46677,-0.83984 3.36914,-0.66699 5.36328,0.49023c3.96289,2.28418 7.1709,7.83789 7.15234,12.37988v0c0,2.2666 -0.79199,3.97656 -2.22949,4.81738l-35.25098,20.48437c0,0.00098 0,0.00098 -0.00098,0.00098v0c-0.06348,0.03711 -0.13281,0.05469 -0.20117,0.05469zM6.29982,29.26221c0.91016,0.08203 1.88965,0.41699 2.89453,1c3.96289,2.28515 7.17188,7.83984 7.15234,12.38183c0,1.12305 -0.19531,2.11035 -0.56738,2.92285l33.18555,-19.28515c1.18164,-0.69043 1.83203,-2.15625 1.83203,-4.12598c0,-0.00098 0,-0.00098 0,-0.00195c0.01953,-4.28516 -3.00977,-9.52832 -6.75293,-11.68555c-1.73633,-1.00879 -3.35645,-1.18164 -4.56152,-0.49023z"></path></g></g></g></svg>